# xmcd
#
# Track frame offsets:
#	150
#	14375
#	31100
#	50776
#	72468
#	89442
#	114911
#	131056
#	145677
#	158013
#	172867
#
# Disc length: 2539 seconds
#
# Revision: 1
# Processed by: cddbd v1.4b41PL1 Copyright (c) Steve Scherf et al.
# Submitted via: audiograbber 1.80
#
DISCID=8c09e90b
DTITLE=Rivermarks - Sidesteps
DYEAR=1900
DGENRE=
TTITLE0=Don't think twice
TTITLE1=The river
TTITLE2=Where peaceful waters flow
TTITLE3=The boxer
TTITLE4=Let it rain
TTITLE5=Lying eyes
TTITLE6=Don't you need
TTITLE7=Banks of the Ohio
TTITLE8=You light up my life
TTITLE9=Take it easy
TTITLE10=She belongs to me
EXTD=www.rivermarks.de 
EXTT0=
EXTT1=
EXTT2=
EXTT3=
EXTT4=
EXTT5=
EXTT6=
EXTT7=
EXTT8=
EXTT9=
EXTT10=
PLAYORDER=
